<svg xmlns="http://www.w3.org/2000/svg" width="54.43" height="60.685" viewBox="0 0 54.43 60.685">
  <g id="icon-box-3" transform="translate(-26.388 0)">
    <path id="Path_14" data-name="Path 14" d="M65.2,233.134l-.43,1.167L37.152,250.459l-2.252.161,1-1.268,28.3-16.218Z" transform="translate(-7.503 -205.501)" fill="#424242"/>
    <path id="Path_15" data-name="Path 15" d="M88.319,247.1a1.083,1.083,0,0,0-.546-.926l-22.586-13.04L34.9,250.62a3.859,3.859,0,0,0,1.93,3.343l20.2,11.661a4.205,4.205,0,0,0,4.205,0L86.1,251.267a4.446,4.446,0,0,0,2.223-3.85V247.1Z" transform="translate(-7.503 -205.501)" fill="#e8edef"/>
    <path id="Path_16" data-name="Path 16" d="M87.773,352.108,61.232,367.431a4.205,4.205,0,0,1-4.205,0L34.9,354.656A3.859,3.859,0,0,0,36.83,358l20.2,11.661a4.205,4.205,0,0,0,4.205,0L86.1,355.3a4.446,4.446,0,0,0,2.223-3.85v-.293A1.085,1.085,0,0,1,87.773,352.108Z" transform="translate(-7.503 -309.537)" fill="#c8ced6"/>
    <path id="Path_17" data-name="Path 17" d="M485.6,350.957c0,.008,0,.015,0,.023v-.024Z" transform="translate(-404.782 -309.358)" fill="#d1d1d1"/>
    <path id="Path_18" data-name="Path 18" d="M85.525,273.028l2.737,1.6,18.195-10.513-2.716-1.555Z" transform="translate(-52.128 -231.439)" fill="#212938"/>
    <path id="Path_19" data-name="Path 19" d="M95.23,372.713l-3.778,2.192v.2l1.442.834,3.792-2.175v-.218Z" transform="translate(-57.352 -328.537)" fill="#284363"/>
    <path id="Path_20" data-name="Path 20" d="M92.9,381.955l-1.451-.836v.2l1.442.834,3.792-2.175v-.218Z" transform="translate(-57.352 -334.751)" fill="#212938"/>
    <path id="Path_21" data-name="Path 21" d="M111.377,381.923l-3.778,2.192v.2l2,1.162,3.792-2.175v-.218Z" transform="translate(-71.585 -336.655)" fill="#284363"/>
    <path id="Path_22" data-name="Path 22" d="M109.607,393.932l-2.008-1.164v.2l2,1.162,3.792-2.175v-.218Z" transform="translate(-71.585 -345.308)" fill="#212938"/>
    <path id="Path_23" data-name="Path 23" d="M147.215,361.333l-3.778,2.192v.2l2,1.162,3.792-2.175V362.5Z" transform="translate(-103.176 -318.505)" fill="#284363"/>
    <path id="Path_24" data-name="Path 24" d="M145.445,373.341l-2.008-1.164v.2l2,1.162,3.792-2.175v-.218Z" transform="translate(-103.176 -327.158)" fill="#212938"/>
    <path id="Path_25" data-name="Path 25" d="M180.515,366.163l-3.778,2.192v.2l2,1.162,3.792-2.175v-.218Z" transform="translate(-132.529 -322.763)" fill="#284363"/>
    <path id="Path_26" data-name="Path 26" d="M178.745,378.171l-2.008-1.164v.2l2,1.162,3.792-2.175v-.218Z" transform="translate(-132.529 -331.415)" fill="#212938"/>
    <path id="Path_27" data-name="Path 27" d="M205.835,375.489l-3.778,2.192v.2l2,1.162,3.792-2.175v-.218Z" transform="translate(-154.848 -330.984)" fill="#284363"/>
    <path id="Path_28" data-name="Path 28" d="M204.065,387.5l-2.008-1.164v.2l2,1.162,3.792-2.175v-.218Z" transform="translate(-154.848 -339.637)" fill="#212938"/>
    <path id="Path_29" data-name="Path 29" d="M241.479,354.96l-3.778,2.192v.2l2,1.162,3.792-2.175v-.218Z" transform="translate(-186.267 -312.888)" fill="#284363"/>
    <path id="Path_30" data-name="Path 30" d="M239.709,366.969l-2.008-1.164v.2l2,1.162,3.792-2.175v-.218Z" transform="translate(-186.267 -321.541)" fill="#212938"/>
    <path id="Path_31" data-name="Path 31" d="M277.867,334.1l-3.778,2.192v.2l2,1.162,3.792-2.175v-.218Z" transform="translate(-218.342 -294.502)" fill="#284363"/>
    <path id="Path_32" data-name="Path 32" d="M276.1,346.111l-2.008-1.164v.2l2,1.162,3.792-2.175v-.218Z" transform="translate(-218.342 -303.155)" fill="#212938"/>
    <path id="Path_33" data-name="Path 33" d="M216.334,345.481l-3.778,2.192v.2l2,1.162,3.792-2.175v-.218Z" transform="translate(-164.102 -304.532)" fill="#284363"/>
    <path id="Path_34" data-name="Path 34" d="M214.564,357.489l-2.008-1.164v.2l2,1.162,3.792-2.175V355.3Z" transform="translate(-164.102 -313.185)" fill="#212938"/>
    <path id="Path_35" data-name="Path 35" d="M252.4,324.526l-3.778,2.192v.2l2,1.162,3.792-2.175v-.218Z" transform="translate(-195.896 -286.061)" fill="#284363"/>
    <path id="Path_36" data-name="Path 36" d="M250.633,336.535l-2.008-1.164v.2l2,1.162,3.792-2.175v-.218Z" transform="translate(-195.896 -294.714)" fill="#212938"/>
    <path id="Path_37" data-name="Path 37" d="M288.544,304.045l-3.778,2.192v.2l2,1.162,3.792-2.175v-.218Z" transform="translate(-227.753 -268.008)" fill="#284363"/>
    <path id="Path_38" data-name="Path 38" d="M286.774,316.053l-2.008-1.164v.2l2,1.162,3.792-2.175v-.218Z" transform="translate(-227.753 -276.66)" fill="#212938"/>
    <path id="Path_39" data-name="Path 39" d="M182.92,340.8,179.142,343v.2l2,1.162,3.792-2.175v-.218Z" transform="translate(-134.649 -300.409)" fill="#284363"/>
    <path id="Path_40" data-name="Path 40" d="M181.15,352.812l-2.008-1.164v.2l2,1.162,3.792-2.175v-.218Z" transform="translate(-134.649 -309.062)" fill="#212938"/>
    <path id="Path_41" data-name="Path 41" d="M218.853,319.946l-3.778,2.192v.2l2,1.162,3.792-2.175v-.218Z" transform="translate(-166.323 -282.024)" fill="#284363"/>
    <path id="Path_42" data-name="Path 42" d="M217.083,331.954l-2.008-1.164v.2l2,1.162,3.792-2.175v-.218Z" transform="translate(-166.323 -290.676)" fill="#212938"/>
    <path id="Path_43" data-name="Path 43" d="M254.813,299.136l-3.778,2.192v.2l2,1.162,3.792-2.175V300.3Z" transform="translate(-198.02 -263.68)" fill="#284363"/>
    <path id="Path_44" data-name="Path 44" d="M253.043,311.145l-2.008-1.164v.2l2,1.162,3.792-2.175v-.218Z" transform="translate(-198.02 -272.334)" fill="#212938"/>
    <path id="Path_45" data-name="Path 45" d="M290.7,278.49l-3.778,2.192v.2l2,1.162,3.792-2.175v-.218Z" transform="translate(-229.657 -245.481)" fill="#284363"/>
    <path id="Path_46" data-name="Path 46" d="M288.933,290.5l-2.008-1.164v.2l2,1.162,3.792-2.175v-.218Z" transform="translate(-229.657 -254.135)" fill="#212938"/>
    <path id="Path_47" data-name="Path 47" d="M135.6,388l-2.013-1.163-5.261,3.042v.2l2,1.162,5.275-3.023V388Z" transform="translate(-89.856 -340.982)" fill="#284363"/>
    <path id="Path_48" data-name="Path 48" d="M128.326,398.544v.2l2,1.162,5.275-3.023v-.218l-5.266,3.04Z" transform="translate(-89.856 -349.652)" fill="#212938"/>
    <path id="Path_49" data-name="Path 49" d="M157.1,397.618l-2.009-1.161-5.79,3.351v.2l2,1.162,5.8-3.34v-.218Z" transform="translate(-108.341 -349.466)" fill="#284363"/>
    <path id="Path_50" data-name="Path 50" d="M149.3,408.462v.2l2,1.162,5.8-3.34v-.213l-5.8,3.352Z" transform="translate(-108.341 -358.12)" fill="#212938"/>
    <path id="Path_51" data-name="Path 51" d="M215.1,406.236l0,0v0Z" transform="translate(-166.342 -358.084)" fill="#292929"/>
    <path id="Path_52" data-name="Path 52" d="M173.885,418.128l-3.778,2.192v.2l2,1.162,3.792-2.175v-.218Z" transform="translate(-126.685 -368.569)" fill="#284363"/>
    <path id="Path_53" data-name="Path 53" d="M172.115,430.137l-2.008-1.164v.2l2,1.162,3.792-2.175v-.218Z" transform="translate(-126.685 -377.222)" fill="#212938"/>
    <path id="Path_54" data-name="Path 54" d="M209.734,397.425l-3.778,2.192v.2l2,1.162,3.792-2.175v-.218Z" transform="translate(-158.285 -350.32)" fill="#284363"/>
    <path id="Path_55" data-name="Path 55" d="M207.964,409.433l-2.008-1.164v.2l2,1.162,3.792-2.175v-.218Z" transform="translate(-158.285 -358.972)" fill="#212938"/>
    <path id="Path_56" data-name="Path 56" d="M253.962,335.191,241.7,342.306v.2l2,1.162,12.276-7.1v-.218Z" transform="translate(-189.792 -295.462)" fill="#284363"/>
    <path id="Path_57" data-name="Path 57" d="M243.708,352.124,241.7,350.96v.2l2,1.162,12.276-7.1v-.218Z" transform="translate(-189.792 -304.115)" fill="#212938"/>
    <path id="Path_58" data-name="Path 58" d="M353.127,314.653l-3.778,2.192v.2l2,1.162,3.792-2.175v-.218Z" transform="translate(-284.682 -277.358)" fill="#284363"/>
    <path id="Path_59" data-name="Path 59" d="M351.357,326.661l-2.008-1.164v.2l2,1.162,3.792-2.175v-.218Z" transform="translate(-284.682 -286.011)" fill="#212938"/>
    <path id="Path_60" data-name="Path 60" d="M130.935,352.066l-3.778,2.192v.2l1.442.834,3.792-2.175V352.9Z" transform="translate(-88.825 -310.337)" fill="#284363"/>
    <path id="Path_61" data-name="Path 61" d="M128.608,361.308l-1.451-.836v.2l1.442.834,3.792-2.175v-.218Z" transform="translate(-88.825 -316.551)" fill="#212938"/>
    <path id="Path_62" data-name="Path 62" d="M166.982,331.278,163.2,333.47v.2l1.442.834,3.792-2.175v-.218Z" transform="translate(-120.6 -292.013)" fill="#284363"/>
    <path id="Path_63" data-name="Path 63" d="M164.655,340.52l-1.451-.836v.2l1.442.834,3.792-2.175v-.218Z" transform="translate(-120.6 -298.227)" fill="#212938"/>
    <path id="Path_64" data-name="Path 64" d="M202.915,310.489l-3.778,2.192v.2l1.442.834,3.792-2.175v-.218Z" transform="translate(-152.274 -273.688)" fill="#284363"/>
    <path id="Path_65" data-name="Path 65" d="M200.588,319.731l-1.451-.836v.2l1.442.834,3.792-2.175v-.218Z" transform="translate(-152.274 -279.902)" fill="#212938"/>
    <path id="Path_66" data-name="Path 66" d="M238.563,289.816l-3.778,2.192v.2l1.442.834,3.792-2.175v-.218Z" transform="translate(-183.697 -255.465)" fill="#284363"/>
    <path id="Path_67" data-name="Path 67" d="M236.236,299.058l-1.451-.836v.2l1.442.834,3.792-2.175v-.218Z" transform="translate(-183.697 -261.679)" fill="#212938"/>
    <path id="Path_68" data-name="Path 68" d="M274.479,269.185l-3.778,2.192v.2l1.442.834,3.792-2.175v-.218Z" transform="translate(-215.356 -237.279)" fill="#284363"/>
    <path id="Path_69" data-name="Path 69" d="M272.152,278.427l-1.451-.836v.2l1.442.834,3.792-2.175v-.218Z" transform="translate(-215.356 -243.494)" fill="#212938"/>
    <path id="Path_70" data-name="Path 70" d="M317.692,293.083l-4.472-2.6-2.306,1.353v.2l2.256,1.333-3.51,2.029,0,0v.2l2,1.162,6.031-3.461v-.218Z" transform="translate(-249.696 -256.051)" fill="#284363"/>
    <path id="Path_71" data-name="Path 71" d="M261.409,370.676l10.948-6.3,4.987,2.857L266.4,373.566Z" transform="translate(-207.165 -321.186)" fill="#c8ced6"/>
    <g id="Group_5" data-name="Group 5" transform="translate(59.966 35.782)">
      <path id="Path_72" data-name="Path 72" d="M322.683,303.322l-2.439-1.429v.2l2.256,1.333Z" transform="translate(-318.992 -301.893)" fill="#212938"/>
      <path id="Path_73" data-name="Path 73" d="M311.7,315.954l-.01-.006h0l-2.008-1.164v.2l2,1.162,6.031-3.461v-.218l-1.589.917Z" transform="translate(-309.683 -311.217)" fill="#212938"/>
    </g>
    <path id="Path_74" data-name="Path 74" d="M57.113.578h0L56.586.271a2.009,2.009,0,0,0-2.011,0l-26.06,15.05A4.253,4.253,0,0,0,26.388,19V43.377A2.008,2.008,0,0,0,27.4,45.119L57.7,27.633V1.546A1.086,1.086,0,0,0,57.113.578Z" transform="translate(0 0)" fill="#284363"/>
    <path id="Path_75" data-name="Path 75" d="M27.4,19.566a4.2,4.2,0,0,1,2.1-3.641l.024-.014h0L56.054.6a1.083,1.083,0,0,1,1.06-.018h0L56.586.271a2.009,2.009,0,0,0-2.011,0l-26.06,15.05A4.253,4.253,0,0,0,26.388,19V43.377A2.008,2.008,0,0,0,27.4,45.119V19.566Z" transform="translate(0 0)" fill="#212938"/>
    <path id="Path_76" data-name="Path 76" d="M43.347,32.862V57.348l28.3-16.325v-24.5Z" transform="translate(-14.949 -14.564)" fill="#33aeff"/>
    <g id="Group_6" data-name="Group 6" transform="translate(40.757 1.959)" opacity="0.2">
      <path id="Path_77" data-name="Path 77" d="M147.622,50.218l13.954-8.05,1.986-5.53V16.523l-4.842,2.8Z" transform="translate(-147.622 -16.523)" fill="#fff"/>
    </g>
    <g id="Group_7" data-name="Group 7" transform="translate(28.398 8.157)" opacity="0.2">
      <path id="Path_78" data-name="Path 78" d="M60.911,68.816,48.7,75.867l-5.351,14.9v12.678l6.467-3.731Z" transform="translate(-43.347 -68.816)" fill="#fff"/>
    </g>
    <path id="Path_79" data-name="Path 79" d="M76.537,23.668,71.78,14.863,43.347,31.4v6.018l4.761,2.771v2.832a2.2,2.2,0,0,0,3.3,1.9h0a4.817,4.817,0,0,0,2.4-4.169V36.875l5.707-3.313v2.831a2.2,2.2,0,0,0,3.3,1.9,4.817,4.817,0,0,0,2.4-4.169V30.252l5.71-3.315v2.823a2.2,2.2,0,0,0,3.3,1.9,4.653,4.653,0,0,0,2.32-4.115V23.666Z" transform="translate(-14.949 -13.101)" fill="#f43834"/>
    <g id="Group_8" data-name="Group 8" transform="translate(34.014 5.078)">
      <path id="Path_80" data-name="Path 80" d="M101.279,107.483l-4.849-8.752-5.7,3.317,4.855,8.749v2.832a2.2,2.2,0,0,0,3.3,1.9,4.817,4.817,0,0,0,2.4-4.169V107.48Z" transform="translate(-90.729 -92.106)" fill="#e3e3e3"/>
      <path id="Path_81" data-name="Path 81" d="M192.69,42.839l-5.7,3.309,4.852,8.757v2.832a2.2,2.2,0,0,0,3.3,1.9,4.817,4.817,0,0,0,2.4-4.169V51.588Z" transform="translate(-175.583 -42.839)" fill="#e3e3e3"/>
    </g>
    <path id="Path_82" data-name="Path 82" d="M83.519,203.835v2.832a2.2,2.2,0,0,0,3.3,1.9h0a4.817,4.817,0,0,0,2.4-4.169v-3.881Z" transform="translate(-50.359 -176.751)" fill="#c40041"/>
    <path id="Path_83" data-name="Path 83" d="M131.691,175.859v2.832a2.2,2.2,0,0,0,3.3,1.9h0a4.817,4.817,0,0,0,2.4-4.169v-3.881Z" transform="translate(-92.822 -152.091)" fill="#c8ced6"/>
    <g id="Group_9" data-name="Group 9" transform="translate(44.566 10.565)">
      <path id="Path_84" data-name="Path 84" d="M179.759,147.944v2.832a2.2,2.2,0,0,0,3.3,1.9h0a4.817,4.817,0,0,0,2.4-4.169v-3.881Z" transform="translate(-179.759 -138.049)" fill="#c40041"/>
      <path id="Path_85" data-name="Path 85" d="M276.024,92.394v2.832a2.2,2.2,0,0,0,3.3,1.9h0a4.653,4.653,0,0,0,2.32-4.115V89.131Z" transform="translate(-264.614 -89.131)" fill="#c40041"/>
    </g>
    <path id="Path_86" data-name="Path 86" d="M227.931,119.968V122.8a2.2,2.2,0,0,0,3.3,1.9h0a4.817,4.817,0,0,0,2.4-4.169v-3.881Z" transform="translate(-177.655 -102.825)" fill="#c8ced6"/>
    <path id="Path_87" data-name="Path 87" d="M48.108,163.137l-4.761-2.771v-6.018Z" transform="translate(-14.949 -136.053)" fill="#c40041"/>
  </g>
</svg>
