<svg xmlns="http://www.w3.org/2000/svg" width="54.317" height="56.067" viewBox="0 0 54.317 56.067">
  <g id="icon-box-6" transform="translate(-6.66)">
    <g id="Group_36" data-name="Group 36" transform="translate(6.66)">
      <path id="Path_115" data-name="Path 115" d="M30.922,75.978H20.5L15.29,85,20.5,94.029H30.922L36.133,85Z" transform="translate(-14.156 -65.996)" fill="#f7be56"/>
      <path id="Path_116" data-name="Path 116" d="M30.922,213.368H20.5l-5.211,9.025,5.211,9.025H30.922l5.211-9.025Z" transform="translate(-14.156 -185.335)" fill="#f7be56"/>
      <path id="Path_117" data-name="Path 117" d="M149.355,144.672H138.934l-5.211,9.026,5.211,9.025h10.421l5.211-9.025Z" transform="translate(-117.029 -125.664)" fill="#f7be56"/>
      <path id="Path_118" data-name="Path 118" d="M142.378,157.205H130.822L125.041,147.2l5.781-10.009h11.555l5.781,10.009Zm-10.422-1.966h9.261l4.673-8.042-4.673-8.042h-9.261l-4.641,8.042Z" transform="translate(-109.487 -119.163)" fill="#3a556a"/>
      <g id="Group_34" data-name="Group 34" transform="translate(16.314 0.629)">
        <path id="Path_119" data-name="Path 119" d="M268.185,75.978H257.764L252.553,85l5.211,9.026h10.421L273.4,85Z" transform="translate(-236.56 -66.625)" fill="#f7be56"/>
        <path id="Path_120" data-name="Path 120" d="M268.185,213.368H257.764l-5.211,9.025,5.211,9.025h10.421l5.211-9.025Z" transform="translate(-236.56 -185.964)" fill="#f7be56"/>
        <path id="Path_121" data-name="Path 121" d="M149.355,282.062H138.934l-5.211,9.025,5.211,9.025h10.421l5.211-9.025Z" transform="translate(-133.343 -245.632)" fill="#f7be56"/>
        <path id="Path_122" data-name="Path 122" d="M149.355,7.284H138.934l-5.211,9.025,5.211,9.025h10.421l5.211-9.025Z" transform="translate(-133.343 -6.956)" fill="#f7be56"/>
        <path id="Path_123" data-name="Path 123" d="M146.841,5.117V4.789H136.229l-5.4,9.353,5.4,9.353h10.8l5.4-9.353-5.4-9.353h-.19v.328l-.288.164,5.119,8.862-5.02,8.7H136.609l-5.027-8.7,5.027-8.7h10.231V5.117l-.288.164Z" transform="translate(-130.828 -4.789)" fill="#f7be56"/>
      </g>
      <g id="Group_35" data-name="Group 35" transform="translate(2.235 4.208)">
        <path id="Path_124" data-name="Path 124" d="M42.073,100.722H31.645l-4.831,8.37c1.7.95,1.861,3.7,3.146,5.158,1.075,1.219,3.153,1.121,4.306,1.855a16.988,16.988,0,0,0,1.966,0c1.272-.085,2.517-.354,3.782-.531,1.848-2.668,3.231-5.7,5.244-8.252a1.616,1.616,0,0,1,.36-.315Z" transform="translate(-26.401 -91.696)" fill="#fcd462"/>
        <path id="Path_125" data-name="Path 125" d="M34.939,253.267a7.556,7.556,0,0,1,2.032-.164,2.675,2.675,0,0,1,.747.269c.229-.511.387-1.075.616-1.534a33.027,33.027,0,0,1,2.517-3.7,12.782,12.782,0,0,1,2.347-3.159l-3.854-6.673H28.916l-5.244,9.025,3.552,6.05a70.317,70.317,0,0,0,7.715-.118Z" transform="translate(-23.672 -211.207)" fill="#fcd462"/>
        <path id="Path_126" data-name="Path 126" d="M147.208,184.819a18.947,18.947,0,0,1,6.98-.564c1.206.072,2.242.538,3.185-.282a9.527,9.527,0,0,0,1.534-2.805c.754-1.488,1.534-3.723,2.93-4.745h.046l-3.933-6.758H147.562l-5.211,9.019,3.88,6.718A3.549,3.549,0,0,1,147.208,184.819Z" transform="translate(-126.758 -151.581)" fill="#fcd462"/>
        <path id="Path_127" data-name="Path 127" d="M271.479,115.573c1.134-.131,2.32.052,3.408-.066,1.311-.138,1.311-.57,2-1.678,1.245-1.966,2.268-4.4,3.631-6.318l-3.933-6.79H266.177l-5.244,9.025,3.933,6.771C266.55,115.324,269.559,115.8,271.479,115.573Z" transform="translate(-229.76 -91.696)" fill="#fcd462"/>
        <path id="Path_128" data-name="Path 128" d="M273.379,253.616c2.006.1,2.53-.754,3.677-2.2,1.357-1.717,3.022-3.5,3.074-5.807a1.8,1.8,0,0,1,.216-.832l-3.749-6.469H266.176l-5.244,9.025,3.933,6.784C267.329,252.43,270.62,253.479,273.379,253.616Z" transform="translate(-229.76 -211.209)" fill="#fcd462"/>
        <path id="Path_129" data-name="Path 129" d="M148.8,322.246c1.966-.072,4.523.308,6.423-.105,3.1-.655,3.815-6.063,6.128-8.141a3.644,3.644,0,0,1,.544-.419l-3.933-6.777h-10.4l-5.211,9.025,3.743,6.482C146.993,322.312,147.9,322.286,148.8,322.246Z" transform="translate(-126.76 -270.702)" fill="#fcd462"/>
        <path id="Path_130" data-name="Path 130" d="M157.985,32.027H147.564l-5.211,9.026,4.149,5.774h10.716l4.464-8.4Z" transform="translate(-126.76 -32.027)" fill="#fcd462"/>
      </g>
      <path id="Path_131" data-name="Path 131" d="M60.944,19.008,55.163,9.025h-10.4L39.517,0H27.995L22.784,9.025H12.441L6.66,19.008l5.211,9.025L6.66,37.059l5.781,9.982H22.784l5.244,9.025H39.55l5.244-9.025H55.2l5.781-10.009-5.244-9.025Zm-6.915-8.016,4.68,8.016-4.68,8.042H44.741l-4.628-8.023,4.647-8.036h9.268ZM43.044,28.033,38.39,36.076H29.214l-4.647-8.042,4.647-8.042H38.39ZM29.128,1.94H38.39l4.634,8.023L38.39,18.024H29.214L24.527,9.917ZM13.575,10.992h9.176l4.68,8.108-4.588,7.977H13.575L8.928,19.008Zm9.176,34.135H13.575L8.928,37.059l4.647-8.042h9.288l4.588,7.977Zm15.639,9H29.129L24.541,46.15l4.673-8.108H38.39L43.044,46.1Zm15.639-9.052H44.761l-4.647-8.029,4.628-8.029h9.288l4.68,8.042Z" transform="translate(-6.66)" fill="#985b3f"/>
    </g>
  </g>
</svg>
