<svg id="logo-2" xmlns="http://www.w3.org/2000/svg" width="83.087" height="98.457" viewBox="0 0 83.087 98.457">
  <g id="Group_2" data-name="Group 2">
    <path id="Path_6" data-name="Path 6" d="M421.205,210.212a6.161,6.161,0,0,0-4.388-1.818,1.82,1.82,0,0,1,0-3.64,9.778,9.778,0,0,1,6.962,2.885,1.82,1.82,0,1,1-2.573,2.574Z" transform="translate(-375.444 -191.196)" fill="#fff"/>
    <path id="Path_7" data-name="Path 7" d="M366.01,186.085l-9.154-.015a18.778,18.778,0,0,0-7.7-12.366l5.894-5.9a2.093,2.093,0,0,0-2.961-2.959l-6.76,6.76a18.623,18.623,0,0,0-14.524.218l-6.977-6.977a2.093,2.093,0,1,0-2.961,2.959l6.213,6.211a18.764,18.764,0,0,0-7.274,12.056l-9.151.009a13.871,13.871,0,1,0,.005,27.742l9.147-.015a18.7,18.7,0,0,0,16.429,15.69v6.409a2.092,2.092,0,1,0,4.184,0v-6.437a18.558,18.558,0,0,0,16.429-15.662l9.149.015h0a13.871,13.871,0,0,0,0-27.742Zm-46.453,23.541-8.9.015a9.685,9.685,0,1,1,0-19.37l8.895-.008Zm33.06-23.581-28.574.027C327.219,170.626,349.413,170.616,352.617,186.045Zm-23.964,35.694h19.363A14.5,14.5,0,0,1,328.653,221.739Zm22.628-4.187H325.386a14.468,14.468,0,0,1-1.344-3.747l14.287-.024,14.292.024A14.526,14.526,0,0,1,351.281,217.551Zm1.642-7.933-14.593-.024-14.586.024v-3.724h29.178Zm0-7.909H323.745V198.16h29.178Zm0-7.735H323.745v-3.717l29.178-.026Zm13.085,15.666-8.9-.015V190.256l8.9.014a9.685,9.685,0,0,1,0,19.37Z" transform="translate(-296.791 -164.236)" fill="#fff"/>
  </g>
  <path id="Path_152" data-name="Path 152" d="M5.3.16A6.726,6.726,0,0,1,2.64-.3a3.805,3.805,0,0,1-1.6-1.192A2.778,2.778,0,0,1,.464-3.056a.321.321,0,0,1,.1-.232.339.339,0,0,1,.248-.1H2.832a.619.619,0,0,1,.344.08.884.884,0,0,1,.216.208,1.883,1.883,0,0,0,.36.464,1.688,1.688,0,0,0,.608.36,2.777,2.777,0,0,0,.936.136,2.729,2.729,0,0,0,1.4-.288.881.881,0,0,0,.472-.784A.755.755,0,0,0,6.912-3.8a2.3,2.3,0,0,0-.824-.416,14.436,14.436,0,0,0-1.512-.376A9.286,9.286,0,0,1,2.5-5.256,3.17,3.17,0,0,1,1.2-6.328,2.9,2.9,0,0,1,.752-7.984,2.914,2.914,0,0,1,1.3-9.728a3.634,3.634,0,0,1,1.544-1.2A5.86,5.86,0,0,1,5.2-11.36a5.99,5.99,0,0,1,1.944.288A4.432,4.432,0,0,1,8.56-10.3a3.622,3.622,0,0,1,.872,1.016A2.314,2.314,0,0,1,9.744-8.24a.334.334,0,0,1-.1.232.313.313,0,0,1-.24.1H7.3a.673.673,0,0,1-.3-.064.59.59,0,0,1-.224-.208,1.1,1.1,0,0,0-.5-.616A1.929,1.929,0,0,0,5.2-9.056a2.047,2.047,0,0,0-1.1.248.837.837,0,0,0-.392.76.811.811,0,0,0,.216.56,1.729,1.729,0,0,0,.72.416A12.438,12.438,0,0,0,6.032-6.7a10.4,10.4,0,0,1,2.352.68A2.955,2.955,0,0,1,9.7-4.968a2.95,2.95,0,0,1,.416,1.624A2.972,2.972,0,0,1,9.5-1.464a3.83,3.83,0,0,1-1.7,1.208A6.957,6.957,0,0,1,5.3.16ZM12.112,0a.39.39,0,0,1-.288-.112A.39.39,0,0,1,11.712-.4V-10.8a.39.39,0,0,1,.112-.288.39.39,0,0,1,.288-.112h2.064a.39.39,0,0,1,.288.112.39.39,0,0,1,.112.288v3.856h3.952V-10.8a.39.39,0,0,1,.112-.288.39.39,0,0,1,.288-.112h2.064a.39.39,0,0,1,.288.112.39.39,0,0,1,.112.288V-.4a.39.39,0,0,1-.112.288A.39.39,0,0,1,20.992,0H18.928a.39.39,0,0,1-.288-.112A.39.39,0,0,1,18.528-.4V-4.384H14.576V-.4a.39.39,0,0,1-.112.288A.39.39,0,0,1,14.176,0Zm10.88,0a.321.321,0,0,1-.232-.1.321.321,0,0,1-.1-.232.6.6,0,0,1,.016-.144l3.76-10.272a.642.642,0,0,1,.2-.312.614.614,0,0,1,.424-.136h2.368a.614.614,0,0,1,.424.136.642.642,0,0,1,.2.312L33.792-.48a.318.318,0,0,1,.032.144.321.321,0,0,1-.1.232.339.339,0,0,1-.248.1H31.5a.489.489,0,0,1-.36-.12.6.6,0,0,1-.152-.216l-.624-1.632H26.1L25.488-.336a.63.63,0,0,1-.144.216A.509.509,0,0,1,24.96,0Zm3.76-4.272h2.976L28.224-8.5ZM35.488,0A.39.39,0,0,1,35.2-.112.39.39,0,0,1,35.088-.4V-10.8a.39.39,0,0,1,.112-.288.39.39,0,0,1,.288-.112h2.064a.39.39,0,0,1,.288.112.39.39,0,0,1,.112.288v3.856H41.9V-10.8a.39.39,0,0,1,.112-.288A.39.39,0,0,1,42.3-11.2h2.064a.39.39,0,0,1,.288.112.39.39,0,0,1,.112.288V-.4a.39.39,0,0,1-.112.288A.39.39,0,0,1,44.368,0H42.3a.39.39,0,0,1-.288-.112A.39.39,0,0,1,41.9-.4V-4.384H37.952V-.4a.39.39,0,0,1-.112.288A.39.39,0,0,1,37.552,0Zm11.92,0a.39.39,0,0,1-.288-.112A.39.39,0,0,1,47.008-.4V-10.8a.39.39,0,0,1,.112-.288.39.39,0,0,1,.288-.112h4.16a6.4,6.4,0,0,1,2.672.5,3.76,3.76,0,0,1,1.7,1.472,4.828,4.828,0,0,1,.64,2.392q.016.7.016,1.232t-.016,1.216a5.307,5.307,0,0,1-.632,2.464A3.447,3.447,0,0,1,54.3-.472,6.607,6.607,0,0,1,51.648,0Zm2.464-2.3h1.7a2.67,2.67,0,0,0,1.144-.216A1.443,1.443,0,0,0,53.4-3.2a2.868,2.868,0,0,0,.248-1.216q.032-.464.04-.832t0-.736q-.008-.368-.04-.816a2.188,2.188,0,0,0-.568-1.592,2.245,2.245,0,0,0-1.592-.5H49.872Z" transform="translate(13 91.633)" fill="#fff"/>
  <path id="Path_151" data-name="Path 151" d="M.57,0A.146.146,0,0,1,.462-.042.146.146,0,0,1,.42-.15v-3.9a.146.146,0,0,1,.042-.108A.146.146,0,0,1,.57-4.2h.774a.146.146,0,0,1,.108.042.146.146,0,0,1,.042.108V-2.6H2.976V-4.05a.146.146,0,0,1,.042-.108A.146.146,0,0,1,3.126-4.2H3.9a.146.146,0,0,1,.108.042.146.146,0,0,1,.042.108v3.9a.146.146,0,0,1-.042.108A.146.146,0,0,1,3.9,0H3.126a.146.146,0,0,1-.108-.042A.146.146,0,0,1,2.976-.15V-1.644H1.494V-.15a.146.146,0,0,1-.042.108A.146.146,0,0,1,1.344,0Zm8.2.06a2.363,2.363,0,0,1-.96-.18A1.4,1.4,0,0,1,7.17-.663a1.836,1.836,0,0,1-.252-.909q-.006-.258-.006-.516t.006-.522a1.84,1.84,0,0,1,.255-.909,1.441,1.441,0,0,1,.639-.555,2.281,2.281,0,0,1,.954-.186,2.286,2.286,0,0,1,.951.186,1.456,1.456,0,0,1,.645.555,1.779,1.779,0,0,1,.252.909q.012.264.012.522t-.012.516a1.836,1.836,0,0,1-.252.909,1.4,1.4,0,0,1-.636.543A2.363,2.363,0,0,1,8.766.06Zm0-.864A.72.72,0,0,0,9.285-1,.849.849,0,0,0,9.5-1.608q.012-.264.012-.5T9.5-2.592a1.087,1.087,0,0,0-.1-.459.6.6,0,0,0-.255-.261A.8.8,0,0,0,8.766-3.4a.783.783,0,0,0-.366.084.613.613,0,0,0-.258.261,1.056,1.056,0,0,0-.108.459q-.006.252-.006.486t.006.5A.877.877,0,0,0,8.25-1,.71.71,0,0,0,8.766-.8Zm4.866.8a.146.146,0,0,1-.108-.042.146.146,0,0,1-.042-.108v-3.9a.146.146,0,0,1,.042-.108.146.146,0,0,1,.108-.042h.636a.2.2,0,0,1,.147.045.319.319,0,0,1,.057.069l1.464,2.31V-4.05a.146.146,0,0,1,.042-.108.146.146,0,0,1,.108-.042h.72a.146.146,0,0,1,.108.042.146.146,0,0,1,.042.108v3.9a.149.149,0,0,1-.042.105A.141.141,0,0,1,16.806,0h-.642a.185.185,0,0,1-.141-.048.664.664,0,0,1-.057-.066L14.5-2.334V-.15a.146.146,0,0,1-.042.108A.146.146,0,0,1,14.352,0Zm6.474,0A.146.146,0,0,1,20-.042a.146.146,0,0,1-.042-.108v-3.9A.146.146,0,0,1,20-4.158a.146.146,0,0,1,.108-.042h2.8a.146.146,0,0,1,.108.042.146.146,0,0,1,.042.108v.564a.146.146,0,0,1-.042.108.146.146,0,0,1-.108.042H20.994v.81h1.782a.141.141,0,0,1,.108.045.157.157,0,0,1,.042.111v.522a.149.149,0,0,1-.042.105.141.141,0,0,1-.108.045H20.994v.834h1.962a.146.146,0,0,1,.108.042.146.146,0,0,1,.042.108V-.15a.146.146,0,0,1-.042.108A.146.146,0,0,1,22.956,0ZM27.18,0a.149.149,0,0,1-.1-.042A.141.141,0,0,1,27.03-.15V-1.44L25.638-4.008l-.012-.033a.088.088,0,0,1-.006-.033.12.12,0,0,1,.039-.087.127.127,0,0,1,.093-.039h.75a.206.206,0,0,1,.141.045.207.207,0,0,1,.063.081l.864,1.548.864-1.548a.291.291,0,0,1,.069-.081.206.206,0,0,1,.141-.045h.75a.117.117,0,0,1,.09.039.125.125,0,0,1,.036.087.169.169,0,0,1,0,.033.277.277,0,0,1-.009.033L28.11-1.44V-.15a.146.146,0,0,1-.042.108A.146.146,0,0,1,27.96,0Zm9.528,0a.149.149,0,0,1-.1-.042.141.141,0,0,1-.045-.108V-3.006l-.822.63a.131.131,0,0,1-.111.03.169.169,0,0,1-.1-.066l-.354-.462a.163.163,0,0,1-.027-.117.134.134,0,0,1,.069-.1l1.38-1.068a.24.24,0,0,1,.069-.033.286.286,0,0,1,.075-.009h.75a.149.149,0,0,1,.1.042.141.141,0,0,1,.045.108v3.9a.141.141,0,0,1-.045.108.149.149,0,0,1-.1.042Zm4.524,0a.117.117,0,0,1-.09-.039.132.132,0,0,1-.036-.093.108.108,0,0,1,.009-.048l.015-.03.846-1.158a.828.828,0,0,1-.174.018,1.691,1.691,0,0,1-.528-.123,1.617,1.617,0,0,1-.465-.288,1.348,1.348,0,0,1-.327-.435,1.3,1.3,0,0,1-.12-.564,1.467,1.467,0,0,1,.108-.555,1.415,1.415,0,0,1,.324-.48,1.57,1.57,0,0,1,.537-.339,2.037,2.037,0,0,1,.747-.126,2.284,2.284,0,0,1,.753.114,1.615,1.615,0,0,1,.552.315,1.321,1.321,0,0,1,.339.465,1.407,1.407,0,0,1,.114.564,1.3,1.3,0,0,1-.1.51,2.424,2.424,0,0,1-.243.441q-.144.207-.288.417L42.246-.12a.767.767,0,0,1-.072.075A.2.2,0,0,1,42.03,0Zm.858-2.136a.669.669,0,0,0,.324-.078.592.592,0,0,0,.228-.216.635.635,0,0,0,.084-.336.651.651,0,0,0-.084-.339.564.564,0,0,0-.228-.216A.691.691,0,0,0,42.09-3.4a.678.678,0,0,0-.318.075.564.564,0,0,0-.228.216.651.651,0,0,0-.084.339.635.635,0,0,0,.084.336.592.592,0,0,0,.228.216A.657.657,0,0,0,42.09-2.136ZM47.238,0a.117.117,0,0,1-.09-.039.132.132,0,0,1-.036-.093.108.108,0,0,1,.009-.048l.015-.03.846-1.158a.828.828,0,0,1-.174.018,1.691,1.691,0,0,1-.528-.123,1.617,1.617,0,0,1-.465-.288,1.348,1.348,0,0,1-.327-.435,1.3,1.3,0,0,1-.12-.564,1.467,1.467,0,0,1,.108-.555A1.415,1.415,0,0,1,46.8-3.8a1.57,1.57,0,0,1,.537-.339,2.037,2.037,0,0,1,.747-.126,2.284,2.284,0,0,1,.753.114,1.615,1.615,0,0,1,.552.315,1.321,1.321,0,0,1,.339.465,1.407,1.407,0,0,1,.114.564,1.3,1.3,0,0,1-.1.51,2.424,2.424,0,0,1-.243.441q-.144.207-.288.417L48.252-.12a.767.767,0,0,1-.072.075A.2.2,0,0,1,48.036,0ZM48.1-2.136a.669.669,0,0,0,.324-.078.592.592,0,0,0,.228-.216.635.635,0,0,0,.084-.336.651.651,0,0,0-.084-.339.564.564,0,0,0-.228-.216A.691.691,0,0,0,48.1-3.4a.678.678,0,0,0-.318.075.564.564,0,0,0-.228.216.651.651,0,0,0-.084.339.635.635,0,0,0,.084.336.592.592,0,0,0,.228.216A.657.657,0,0,0,48.1-2.136ZM54.234.06a2.075,2.075,0,0,1-.75-.123A1.427,1.427,0,0,1,52.959-.4a1.462,1.462,0,0,1-.315-.5,2.071,2.071,0,0,1-.126-.618q-.006-.162-.009-.369t0-.42q0-.213.009-.381a1.981,1.981,0,0,1,.129-.615,1.43,1.43,0,0,1,.324-.5A1.48,1.48,0,0,1,53.5-4.14a2.059,2.059,0,0,1,.735-.12,2.053,2.053,0,0,1,.738.12,1.484,1.484,0,0,1,.525.333,1.467,1.467,0,0,1,.327.5,1.822,1.822,0,0,1,.126.615q.012.168.015.381t0,.42q0,.207-.015.369a1.9,1.9,0,0,1-.123.618,1.5,1.5,0,0,1-.318.5,1.431,1.431,0,0,1-.522.339A2.07,2.07,0,0,1,54.234.06Zm0-.87a.514.514,0,0,0,.453-.2.96.96,0,0,0,.147-.543q.012-.174.015-.366t0-.384q0-.192-.015-.354a.953.953,0,0,0-.147-.534.525.525,0,0,0-.453-.21.517.517,0,0,0-.45.21,1,1,0,0,0-.15.534q-.006.162-.009.354t0,.384q0,.192.009.366a.976.976,0,0,0,.156.543A.509.509,0,0,0,54.234-.81Z" transform="translate(14 98.397)" fill="#faa61a"/>
</svg>
