<svg xmlns="http://www.w3.org/2000/svg" width="55" height="63.481" viewBox="0 0 55 63.481">
  <g id="icon-box-1" transform="translate(-34.202)">
    <path id="Path_8" data-name="Path 8" d="M43.647,63.481l-6.906-14.9a27.3,27.3,0,0,1,6.634-31.936A156.239,156.239,0,0,0,58.848,1.392L60.065,0l2.83,3.9a51.542,51.542,0,0,1,7.731,15.123Z" transform="translate(0 0)" fill="#00aa95"/>
    <path id="Path_9" data-name="Path 9" d="M161.847,116.482l-1.05-5.248c-5.189,12.231-18.5,18.729-26.126,27.169a206.732,206.732,0,0,0-20.965,27.169h7.9C156.712,165.571,166.928,141.877,161.847,116.482Z" transform="translate(-73.87 -102.09)" fill="#00cc76"/>
    <path id="Path_10" data-name="Path 10" d="M160.8,111.234l-1.913.766c-4.714,1.887-9.52,3.522-14.388,4.957h0q-4.355,1.284-8.769,2.366a29,29,0,0,0-22.021,28.144v18.1s32.828-20.718,47.09-54.337Z" transform="translate(-73.87 -102.09)" fill="#a5e887"/>
  </g>
</svg>
