<svg id="icon-box-5" xmlns="http://www.w3.org/2000/svg" width="55.397" height="55.397" viewBox="0 0 55.397 55.397">
  <g id="Icons" transform="translate(0.923 0.923)">
    <path id="Shape" d="M8,4.616V12l7.386,4.616L22.772,12V4.616L15.386,0Z" transform="translate(-0.614)" fill="#ffeb3a"/>
    <path id="Shape-2" data-name="Shape" d="M14.772,17.616V25L7.386,29.619,0,25V17.616L7.386,13Z" transform="translate(0 -0.997)" fill="#ffdc00"/>
    <path id="Shape-3" data-name="Shape" d="M46.772,17.616V25l-7.386,4.616L32,25V17.616L39.386,13Z" transform="translate(-2.455 -0.997)" fill="#fdd834"/>
    <path id="Shape-4" data-name="Shape" d="M44,19.616v7.275l-4.616,2.881L32,25.156V17.89L36.616,15Z" transform="translate(-2.455 -1.151)" fill="#ffeb3a"/>
    <path id="Shape-5" data-name="Shape" d="M22.772,30.616V38l-7.386,4.616L8,38V30.616L15.386,26Z" transform="translate(-0.614 -1.995)" fill="#ffeb3a"/>
    <path id="Shape-6" data-name="Shape" d="M14.772,43.616V51L7.386,55.619,0,51V43.616L7.386,39Z" transform="translate(0 -2.992)" fill="#ffdc00"/>
    <path id="Shape-7" data-name="Shape" d="M30.772,43.616V51l-7.386,4.616L16,51V43.616L23.386,39Z" transform="translate(-1.228 -2.992)" fill="#ff9801"/>
    <path id="Shape-8" data-name="Shape" d="M30.772,17.616V25l-7.386,4.616L16,25V17.616L23.386,13Z" transform="translate(-1.228 -0.997)" fill="#ff9801"/>
    <path id="Shape-9" data-name="Shape" d="M38.772,4.616V12l-7.386,4.616L24,12V4.616L31.386,0Z" transform="translate(-1.841)" fill="#fec108"/>
    <path id="Shape-10" data-name="Shape" d="M36,6.616v7.275l-4.616,2.881L24,12.156V4.89L28.616,2Z" transform="translate(-1.841 -0.153)" fill="#ffdc00"/>
    <path id="Shape-11" data-name="Shape" d="M44.88,41.156c-.116-1.648-.163-1.632-1.8-10.156H33.847C32.357,38.756,32,39.97,32,42.541a18.669,18.669,0,0,0,.942,6c2.519,7.372,8.516,7.393,11.042,0A19.23,19.23,0,0,0,44.88,41.156Z" transform="translate(-2.455 -2.378)" fill="#f0c419"/>
    <path id="Shape-12" data-name="Shape" d="M42.479,37.463H34.89c2.281-1.911,3.795-4.838,3.795-6.463a6.666,6.666,0,0,0,.923,2.9A12.068,12.068,0,0,0,42.479,37.463Z" transform="translate(-2.677 -2.378)" fill="#ffdc00"/>
    <path id="Shape-13" data-name="Shape" d="M44.884,41.693H32.05a19.558,19.558,0,0,1,.286-2.271A8.478,8.478,0,0,0,34.672,38h7.589A8.707,8.707,0,0,0,44.6,39.422a19.559,19.559,0,0,1,.286,2.271Z" transform="translate(-2.459 -2.915)" fill="#37474f"/>
    <path id="Shape-14" data-name="Shape" d="M44.8,45.693H32.129A20.663,20.663,0,0,1,32.046,42H44.88A20.641,20.641,0,0,1,44.8,45.693Z" transform="translate(-2.455 -3.222)" fill="#fec108"/>
    <path id="Shape-15" data-name="Shape" d="M44.807,46a17.055,17.055,0,0,1-.812,3.693H32.952A17.055,17.055,0,0,1,32.14,46Z" transform="translate(-2.466 -3.529)" fill="#37474f"/>
    <path id="Shape-16" data-name="Shape" d="M44.062,50c-2.512,7.353-8.5,7.419-11.042,0Z" transform="translate(-2.533 -3.836)" fill="#fec108"/>
    <path id="Shape-17" data-name="Shape" d="M32.05,42H42.114a20.7,20.7,0,0,1-.083,3.693h-9.9Z" transform="translate(-2.459 -3.222)" fill="#ffdc00"/>
    <path id="Shape-18" data-name="Shape" d="M41.293,50c-.9,2.641-2.382,4.589-4.136,5.263C35.4,54.589,33.925,52.641,33.02,50Z" transform="translate(-2.533 -3.836)" fill="#ffdc00"/>
    <path id="Shape-19" data-name="Shape" d="M43.233,27.616v1.874c-.881.009-4.616.025-4.616.9,0-.656-1.883-.849-4.616-.9V27.616a4.616,4.616,0,1,1,9.233,0Z" transform="translate(-2.608 -1.765)" fill="#37474f"/>
    <path id="Shape-20" data-name="Shape" d="M20,34.616c0,2.549,4.643,4.616,9.233,4.616s8.31-5.76,8.31-8.31c0-.923-3.72-.923-8.31-.923S20,32.067,20,34.616Z" transform="translate(-1.534 -2.302)" fill="#f5f5f5"/>
    <path id="Shape-21" data-name="Shape" d="M56.542,34.616c0,3.231-7.1,5.13-10.258,4.515-2.623-.427-5.108-2.926-6.361-5.309a6.666,6.666,0,0,1-.923-2.9c0-.589,1.578-.739,2.179-.785C42.7,29.994,45.639,30,47.31,30,51.9,30,56.542,32.068,56.542,34.616Z" transform="translate(-2.992 -2.302)" fill="#cfd8dc"/>
    <path id="Shape-22" data-name="Shape" d="M53.772,34.617c0,2.225-3.536,4.081-7.488,4.515C42.592,38.531,39,33.621,39,30.924c0-.98,4.694-.914,5.8-.914C49.3,30.075,53.772,32.115,53.772,34.617Z" transform="translate(-2.992 -2.302)" fill="#f5f5f5"/>
  </g>
  <g id="Layer_2" transform="translate(0 0)">
    <path id="Shape-23" data-name="Shape" d="M.434,49.717c8.029,5.023,7.5,4.757,7.876,4.757s-.092.221,7.386-4.451c7.494,4.684,7.017,4.451,7.386,4.451s0,.163,6.038-3.612a.925.925,0,0,0-.98-1.57l-5.059,3.17-6.463-4.039V42.059l3.371-2.111a.925.925,0,1,0-.981-1.57L15.7,40.458,9.233,36.42V30.056L15.7,26.018c3.6,2.256,3.364,2.138,3.621,2.191a.923.923,0,0,0,.673-1.681l-3.371-2.111V18.054l6.463-4.039,6.463,4.039v1.335a.923.923,0,0,0,1.847,0V18.054l6.463-4.039,6.463,4.039v6.875a.923.923,0,1,0,1.847,0V17.542a.923.923,0,0,0-.434-.783l-6.952-4.345V5.54a.923.923,0,0,0-.434-.783L30.958.14a.923.923,0,0,0-.979,0l-6.9,4.311L16.185.14a.923.923,0,0,0-.979,0L7.82,4.757a.923.923,0,0,0-.434.783v6.875L.434,16.759A.923.923,0,0,0,0,17.542v7.386a.923.923,0,0,0,.434.783l6.952,4.345V36.42L.434,40.765A.923.923,0,0,0,0,41.548v7.386a.923.923,0,0,0,.434.783ZM24.005,6.051l6.463-4.039,6.463,4.039v6.363l-6.463,4.039-6.463-4.039Zm-14.772,0L15.7,2.012l6.463,4.039v6.363L15.7,16.454,9.233,12.414ZM1.847,24.417V18.054L8.31,14.014l6.463,4.039v6.363L8.31,28.456Zm0,17.642L8.31,38.02l6.463,4.039v6.363L8.31,52.462,1.847,48.422Z" transform="translate(0 0)"/>
    <path id="Shape-24" data-name="Shape" d="M44.005,29.32v-.934a5.528,5.528,0,0,0-1.939-4.2l.923-1.847a.923.923,0,0,0-1.653-.824l-.856,1.718a5.47,5.47,0,0,0-4.022,0L35.6,21.511a.923.923,0,1,0-1.653.824l.923,1.847a5.528,5.528,0,0,0-1.948,4.2v.932c-.84-.008-1.754-.008-2.77-.008-4.9,0-10.156,2.226-10.156,5.54,0,3.977,7.5,6.074,11.234,5.439-.035.306-.057.61-.087.917a1.045,1.045,0,0,0-.021.107c0,.024.012.044.014.068-.028.439-.06.877-.06,1.317,0,6.463,2.77,11.616,6.463,12.362v1.026a.923.923,0,1,0,1.847,0V55.058c3.693-.746,6.463-5.9,6.463-12.362,0-.439-.032-.878-.06-1.317,0-.024.014-.044.014-.068s-.018-.071-.021-.108c-.03-.3-.051-.608-.086-.911,3.781.629,11.233-1.474,11.233-5.444,0-3.314-5.252-5.54-10.156-5.54-.969,0-1.9,0-2.77.011Zm-9.233-.934a3.693,3.693,0,1,1,7.386,0v.971a11.7,11.7,0,0,0-3.687.532,11.048,11.048,0,0,0-3.7-.535ZM40.06,36.7H36.868a13.121,13.121,0,0,0,1.6-2.418A12.3,12.3,0,0,0,40.06,36.7Zm-9.9,1.847c-4.475,0-8.31-2.031-8.31-3.693s3.834-3.693,8.31-3.693c1.847,0,6.215-.033,7.361.331C37.2,33.707,33.984,38.542,30.156,38.542ZM43.3,47.775H42.159a.923.923,0,1,0,0,1.847h.462c-2.246,4.921-6.062,4.919-8.31,0h4.155a.923.923,0,1,0,0-1.847H33.627a17,17,0,0,1-.425-1.847H43.728A17,17,0,0,1,43.3,47.775Zm.646-3.693H32.981a11.572,11.572,0,0,1-.034-1.847h.9a.923.923,0,1,0,0-1.847h-.768c.03-.245.062-.489.1-.732a9.679,9.679,0,0,0,1.788-1.114h6.975a9.761,9.761,0,0,0,1.807,1.131c.037.237.069.476.1.716H37.542a.923.923,0,1,0,0,1.847h6.442a11.008,11.008,0,0,1-.034,1.847Zm11.134-9.233c0,2.3-6.865,4.607-10.149,3.333A10.179,10.179,0,0,1,39.417,31.5c1.327-.4,5.327-.331,7.359-.344C51.25,31.156,55.085,33.187,55.085,34.849Z" transform="translate(-1.534 -1.611)"/>
  </g>
</svg>
