<svg xmlns="http://www.w3.org/2000/svg" width="29.002" height="25.749" viewBox="0 0 29.002 25.749">
  <g id="bee-icon-1" transform="translate(-375 -449)">
    <g id="Group_3" data-name="Group 3" transform="translate(375 449)">
      <path id="Path_6" data-name="Path 6" d="M417.164,206.659a2.151,2.151,0,0,0-1.532-.635.635.635,0,0,1,0-1.271,3.413,3.413,0,0,1,2.43,1.007.635.635,0,1,1-.9.9Z" transform="translate(-401.191 -200.021)" fill="#ffcb05"/>
      <path id="Path_7" data-name="Path 7" d="M320.953,171.862l-3.2-.005a6.554,6.554,0,0,0-2.686-4.317l2.057-2.058a.731.731,0,0,0-1.033-1.033l-2.36,2.359a6.5,6.5,0,0,0-5.07.076l-2.436-2.436a.731.731,0,1,0-1.033,1.033l2.169,2.168a6.55,6.55,0,0,0-2.539,4.208l-3.194,0a4.842,4.842,0,1,0,0,9.683l3.193-.005a6.529,6.529,0,0,0,5.735,5.477v2.237a.73.73,0,1,0,1.46,0v-2.247a6.478,6.478,0,0,0,5.735-5.467l3.194.005h0a4.842,4.842,0,0,0,0-9.683Zm-16.215,8.217-3.105.005a3.381,3.381,0,1,1,0-6.761l3.1,0Zm11.54-8.231-9.974.01A5.1,5.1,0,0,1,316.277,171.848Zm-8.365,12.459h6.759A5.061,5.061,0,0,1,307.913,184.308Zm7.9-1.462h-9.039a5.05,5.05,0,0,1-.469-1.308l4.987-.008,4.989.008A5.072,5.072,0,0,1,315.811,182.846Zm.573-2.769-5.094-.008-5.091.008v-1.3h10.185Zm0-2.761H306.2v-1.239h10.185Zm0-2.7H306.2v-1.3l10.185-.009Zm4.568,5.468-3.106-.005v-6.761l3.106,0a3.381,3.381,0,0,1,0,6.761Z" transform="translate(-296.791 -164.236)" fill="#ffcb05"/>
    </g>
  </g>
</svg>
